Coordinates
version=1
nRows=10
nColumns=34
inDegrees=yes

Units are S.I. units (second, meters, Newtons, ...)
If the header above contains a line with 'inDegrees', this indicates whether rotational values are in degrees (yes) or radians (no).

endheader
time	pelvis_tilt	pelvis_list	pelvis_rotation	pelvis_tx	pelvis_ty	pelvis_tz	hip_flexion_r	hip_adduction_r	hip_rotation_r	knee_angle_r	ankle_angle_r	subtalar_angle_r	mtp_angle_r	hip_flexion_l	hip_adduction_l	hip_rotation_l	knee_angle_l	ankle_angle_l	subtalar_angle_l	mtp_angle_l	lumbar_extension	lumbar_bending	lumbar_rotation	arm_flex_r	arm_add_r	arm_rot_r	elbow_flex_r	pro_sup_r	arm_flex_l	arm_add_l	arm_rot_l	elbow_flex_l	pro_sup_l
      1.59000000	      1.34591274	     -6.13317535	      2.54780667	     -0.24248458	      0.91413286	      0.20795792	     10.65061826	     10.41327129	     -8.47847841	    -17.54625201	      2.16950533	      9.40174334	     69.10539950	      8.85974884	     -5.40446462	      3.21816964	    -60.68404234	     -8.99826879	     -5.52084366	      0.00000000	     -6.41410008	     10.24102789	     -5.08165188	     -6.93400853	    -17.20688617	      7.77701116	     18.89004613	     90.00000000	     -1.59761303	    -14.63363535	     16.14921484	     32.58093410	     90.00000000
      1.60000000	      1.44354090	     -5.71624964	      2.77777315	     -0.22921125	      0.91620214	      0.20830043	      9.11163706	     10.05158103	     -8.85147034	    -16.70007948	      2.75580860	     10.24819271	     68.74293971	     10.52080837	     -4.64667959	      3.58427082	    -61.01369452	     -7.30964779	     -6.30393576	      0.00000000	     -6.54268118	      9.76696112	     -4.86440682	     -6.54501930	    -17.26638523	      8.02344375	     19.60615553	     90.00000000	     -1.53769409	    -14.55128157	     17.26711296	     30.95502600	     90.00000000
      1.61000000	      1.60618704	     -5.22925032	      2.94122780	     -0.21602601	      0.91837973	      0.20878137	      7.45626996	      9.65634595	     -9.01665865	    -15.77404161	      3.28812717	     10.95708279	     68.30845555	     11.99554355	     -3.90170689	      3.74871909	    -60.94473370	     -5.47816791	     -6.77568734	      0.00000000	     -6.77956148	      9.19826165	     -4.53368782	     -6.14754464	    -17.32600081	      8.28987662	     20.36072844	     90.00000000	     -1.43126172	    -14.43992411	     18.21850855	     29.38139979	     90.00000000
      1.62000000	      1.50863444	     -4.78180447	      3.01438576	     -0.20286778	      0.91999522	      0.20949077	      6.01847627	      9.34791567	     -8.84203899	    -14.69363038	      3.59922703	     11.21777935	     68.18463538	     13.68837498	     -3.23863967	      3.75087661	    -60.55597858	     -4.14891511	     -7.28990824	      0.00000000	     -6.73624563	      8.62589099	     -4.32338921	     -5.65756958	    -17.37142479	      8.32079220	     21.07388031	     90.00000000	     -1.84471361	    -14.41238158	     18.25052924	     28.72408477	     90.00000000
      1.63000000	      1.43923964	     -4.29841721	      3.03482380	     -0.18978973	      0.92141739	      0.21011531	      4.62508771	      8.97799488	     -8.63608542	    -13.72521059	      3.90483576	     11.59215240	     68.04202218	     15.24947533	     -2.56035703	      3.62310023	    -59.85252678	     -2.45732507	     -7.82159350	      0.00000000	     -6.73443934	      8.05627490	     -4.02439253	     -5.17656522	    -17.49179436	      8.51575127	     21.89076174	     90.00000000	     -2.04724300	    -14.30449441	     18.42996313	     27.51113494	     90.00000000
      1.64000000	      1.44913619	     -3.83035266	      2.88768888	     -0.17660384	      0.92272320	      0.21120561	      3.23839267	      8.63162612	     -8.52032483	    -12.96322046	      4.39550002	     12.24349420	     67.55951331	     16.55773613	     -2.04229046	      3.22030473	    -58.72866883	     -1.00356012	     -7.84349681	      0.00000000	     -6.79796706	      7.44244763	     -3.33058946	     -4.84807800	    -17.67597913	      9.17121273	     22.63762444	     90.00000000	     -1.69531622	    -14.15199721	     20.32637866	     25.09837302	     90.00000000
      1.65000000	      1.36329417	     -3.31877089	      2.67564423	     -0.16353727	      0.92364909	      0.21224934	      1.94558296	      8.27149565	     -7.94174334	    -12.12145560	      4.75027690	     12.19751886	     67.45189022	     17.90934218	     -1.49931125	      2.71118632	    -57.36509340	      0.02903057	     -8.21110497	      0.00000000	     -6.81418423	      6.77943911	     -2.77416623	     -4.36921248	    -17.81414618	      9.24626097	     23.41974754	     90.00000000	     -1.96732905	    -14.09174081	     20.53263604	     24.06637475	     90.00000000
      1.66000000	      1.25050883	     -2.84233556	      2.39391930	     -0.15058538	      0.92426615	      0.21344788	      0.72433426	      7.92126542	     -7.45571977	    -11.32599072	      5.08799454	     12.27441878	     67.38315002	     19.16571198	     -1.04396923	      2.15469937	    -55.67476646	      0.76434629	     -8.54933155	      0.00000000	     -6.81761370	      6.14787325	     -2.16119772	     -3.78576623	    -17.95028591	      9.33261322	     24.04865722	     90.00000000	     -2.15855019	    -14.01367859	     20.70851666	     22.84551000	     90.00000000
      1.67000000	      1.28358309	     -2.31816729	      2.18558456	     -0.13742066	      0.92467888	      0.21429539	     -0.77233141	      7.57201688	     -6.30440446	    -10.38217922	      5.51962997	     11.52943277	     67.27854953	     20.14055143	     -0.49261721	      1.64964238	    -53.65563871	      1.48288122	     -8.89402105	      0.00000000	     -6.94574330	      5.49588174	     -1.64524016	     -3.27112972	    -18.18532078	      9.48007256	     24.84768550	     90.00000000	     -2.40284662	    -13.96889707	     21.05545304	     21.74352753	     90.00000000
      1.68000000	      1.06051318	     -2.17330595	      2.01640789	     -0.12450012	      0.92440314	      0.21538398	     -1.89514679	      7.53604458	     -6.19942326	     -9.46404250	      5.65448036	     11.66524358	     67.19589639	     21.42435089	     -0.36494584	      1.29534560	    -51.57711150	      1.78883373	     -8.94267813	      0.00000000	     -6.80148293	      5.24436610	     -1.17749888	     -2.71339762	    -18.40565159	      9.47997965	     25.52671953	     90.00000000	     -2.92134143	    -14.02017199	     21.03091978	     21.37772128	     90.00000000
